<svg width="16" height="17" viewBox="0 0 16 17" fill="none" xmlns="http://www.w3.org/2000/svg">
<g id="car-seat (1) 1" clip-path="url(#clip0_55_35080)">
<path id="Vector" d="M11.1979 16.182H11.2979V16.082V12.3782V12.2782H11.1979H4.80225H4.70225V12.3782V16.082V16.182H4.80225H11.1979ZM10.6655 15.5496H5.33468V12.9107H10.6655V15.5496Z" fill="#B5B5B5" stroke="#B5B5B5" stroke-width="0.2"/>
<path id="Vector_2" d="M10.873 16.0781L10.8688 16.1821H10.9729H11.1372C12.2376 16.1821 12.8992 15.7139 13.2871 15.2171C13.6658 14.7321 13.7801 14.225 13.7994 14.114C13.9795 13.4278 13.9414 12.8307 13.6666 12.3685C13.4654 12.0253 13.1445 11.7684 12.7655 11.6473L12.7655 11.6473C12.2614 11.4864 11.7618 11.6683 11.3956 11.881C11.0333 12.0915 10.782 12.3434 10.7522 12.3732C10.7517 12.3737 10.7512 12.3742 10.7508 12.3746L10.6791 12.4463L10.7518 12.517L11.0632 12.8197L11.1447 12.8989L11.2091 12.813L11.2132 12.8089C11.219 12.8033 11.2276 12.795 11.2389 12.7844C11.2616 12.7633 11.2947 12.7334 11.3365 12.6983C11.4203 12.6279 11.5378 12.5374 11.6749 12.454C11.9551 12.2835 12.2901 12.1589 12.5834 12.253L12.5834 12.2532L12.5897 12.2548C12.5894 12.2547 12.5936 12.2558 12.6019 12.2585C12.6099 12.2611 12.6212 12.2651 12.6351 12.2705C12.6628 12.2814 12.7008 12.2983 12.7445 12.3228C12.832 12.3719 12.9411 12.4507 13.0372 12.572C13.2259 12.81 13.38 13.231 13.1833 13.9631L13.1799 13.9759V13.9891V14.0046C13.169 14.0664 13.0904 14.4543 12.7991 14.8255C12.4961 15.2115 11.9568 15.5884 10.9942 15.5497L10.8943 15.5457L10.8903 15.6456L10.873 16.0781Z" fill="#B5B5B5" stroke="#B5B5B5" stroke-width="0.2"/>
<path id="Vector_3" d="M4.86279 16.182L4.86409 16.182L5.03057 16.1798L5.1333 16.1785L5.12919 16.0759L5.1119 15.6434L5.1079 15.5435L5.00797 15.5475C4.04423 15.5862 3.50493 15.2093 3.20229 14.8233C2.91129 14.4521 2.83311 14.0643 2.82225 14.0024V13.9869V13.9738L2.8189 13.9612C2.62318 13.2244 2.77746 12.8036 2.96688 12.5663C3.16062 12.3236 3.40694 12.2528 3.42597 12.2475L3.42598 12.2476L3.42934 12.2465C3.72113 12.1536 4.05482 12.2807 4.33369 12.4533C4.47003 12.5376 4.58667 12.6288 4.66936 12.699C4.71061 12.734 4.74318 12.7637 4.76527 12.7844C4.77631 12.7948 4.78471 12.8029 4.79026 12.8083L4.79641 12.8143L4.79782 12.8158L4.79809 12.816L4.7981 12.816L4.79812 12.8161L4.79813 12.8161L4.86781 12.8867L4.93898 12.8175L5.25033 12.5148L5.32305 12.4441L5.25134 12.3724C5.25084 12.3719 5.25023 12.3713 5.2495 12.3705C5.21789 12.3388 4.96784 12.0878 4.60931 11.8776C4.24547 11.6643 3.74914 11.4809 3.25028 11.6406C2.86303 11.7584 2.53419 12.0175 2.32902 12.3665L2.32895 12.3666C2.05435 12.835 2.01601 13.4256 2.19655 14.1128C2.2172 14.2204 2.33176 14.7298 2.71237 15.2168C3.10077 15.7139 3.76242 16.182 4.86279 16.182Z" fill="#B5B5B5" stroke="#B5B5B5" stroke-width="0.2"/>
<path id="Vector_4" d="M12.3029 11.999L12.327 12.0919L12.4208 12.0716L12.8403 11.9808L12.9412 11.9589L12.9161 11.8588L12.9158 11.8573C12.896 11.7788 12.2632 9.26297 12.4233 7.13874C12.4738 6.85089 12.4656 6.5558 12.3994 6.27113C12.3328 5.9848 12.2088 5.71496 12.0349 5.47794L12.035 5.47784L12.0314 5.47351C11.6319 4.98851 10.9949 4.75168 10.1618 4.75168H5.844C5.01097 4.75168 4.37392 4.98851 3.97438 5.47351L3.97427 5.47341L3.97104 5.47779C3.79755 5.71334 3.6734 5.9815 3.60603 6.26618C3.53902 6.54932 3.52955 6.84301 3.57815 7.12984C3.65875 8.19839 3.53642 9.37022 3.39278 10.2815C3.32096 10.7372 3.24402 11.1265 3.18504 11.4034C3.15556 11.5419 3.13056 11.6522 3.11294 11.7288L3.0923 11.818L3.08657 11.8432L3.08467 11.8523L3.08369 11.8579L3.08368 11.8579C3.08361 11.8584 3.08237 11.8657 3.08237 11.8744V11.9519L3.15742 11.9712L3.57687 12.0793L3.6735 12.1042L3.69861 12.0077C3.72682 11.8992 4.38327 9.32346 4.20778 7.07912V7.05709V7.04832L4.20625 7.03968C4.17062 6.8382 4.17507 6.63168 4.21934 6.43193C4.26333 6.23347 4.34576 6.04557 4.46198 5.87883C4.72307 5.56517 5.17546 5.39277 5.83751 5.39277H10.1618C10.8195 5.39277 11.2723 5.56517 11.5314 5.87081C11.6489 6.03696 11.7328 6.22457 11.7782 6.42302C11.8239 6.62279 11.8296 6.82962 11.7951 7.03162L11.7937 7.03997V7.04844V7.07046C11.6182 9.31481 12.2747 11.8905 12.3029 11.999Z" fill="#B5B5B5" stroke="#B5B5B5" stroke-width="0.2"/>
<path id="Vector_5" d="M10.3935 12.9107H10.4935V12.8107V5.0766V4.9766H10.3935H9.96104H9.86104V5.0766V12.2782H6.13888V5.0766V4.9766H6.03888H5.60645H5.50645V5.0766V12.8107V12.9107H5.60645H10.3935Z" fill="#B5B5B5" stroke="#B5B5B5" stroke-width="0.2"/>
<path id="Vector_6" d="M5.82275 7.96476H5.72275V8.06476V8.49719V8.59719H5.82275H10.1773H10.2773V8.49719V8.06476V7.96476H10.1773H5.82275Z" fill="#B5B5B5" stroke="#B5B5B5" stroke-width="0.2"/>
<path id="Vector_7" d="M9.22533 5.39278H9.32533V5.29278V3.93927V3.83927H9.22533H6.77344H6.67344V3.93927V5.29278V5.39278H6.77344H9.22533ZM8.6929 4.76035H7.30587V4.4717H8.6929V4.76035Z" fill="#B5B5B5" stroke="#B5B5B5" stroke-width="0.2"/>
<path id="Vector_8" d="M5.65354 1.63489L5.65354 1.63489C5.67596 1.41791 5.77831 1.21703 5.94067 1.07136C6.10297 0.925746 6.31362 0.845702 6.53165 0.846788M5.65354 1.63489L9.46761 0.946788M5.65354 1.63489L5.65351 1.63523L5.46761 3.49643C5.45432 3.61925 5.46703 3.74348 5.5049 3.86107C5.54282 3.97879 5.60511 4.08721 5.68773 4.17926C5.77034 4.27131 5.87142 4.34492 5.98437 4.39529C6.09732 4.44567 6.21961 4.47169 6.34328 4.47165C6.3433 4.47165 6.34331 4.47165 6.34332 4.47165H9.55572V4.47595L9.65569 4.47598C9.77937 4.47602 9.90167 4.45 10.0146 4.39962C10.1276 4.34924 10.2287 4.27563 10.3113 4.18358C10.3939 4.09153 10.4562 3.98312 10.4941 3.86539C10.532 3.74781 10.5447 3.62358 10.5314 3.50077C10.5314 3.50062 10.5314 3.50046 10.5313 3.50031L10.3455 1.64221C10.3455 1.6421 10.3455 1.642 10.3455 1.64189C10.3247 1.42372 10.2231 1.22118 10.0607 1.07407C9.89821 0.926932 9.68659 0.845866 9.46739 0.846788M5.65354 1.63489L9.46761 0.946788M6.53165 0.846788C6.53174 0.846789 6.53183 0.846789 6.53192 0.84679L6.53139 0.946788V0.846788H6.53165ZM6.53165 0.846788H9.46739M9.46739 0.846788C9.46732 0.846789 9.46724 0.846789 9.46716 0.846789L9.46761 0.946788M9.46739 0.846788H9.46761V0.946788M6.08382 3.82463L6.15819 3.75777C6.13494 3.73191 6.11744 3.70141 6.10684 3.66829C6.09624 3.63517 6.09278 3.60018 6.09671 3.56562L6.09684 3.5643L6.28279 1.70267L6.28279 1.70267C6.28893 1.64123 6.31775 1.58429 6.36363 1.54296C6.40951 1.50164 6.46915 1.47891 6.5309 1.47922L6.5309 1.47922H6.53139L9.46761 1.47922L9.46804 1.47922C9.53003 1.47895 9.58987 1.50189 9.63579 1.54353C9.68171 1.58517 9.71038 1.64249 9.71615 1.70421L9.71621 1.70485L9.90216 3.56431L9.90215 3.56431L9.9023 3.56562C9.90622 3.60018 9.90276 3.63517 9.89216 3.66829C9.88157 3.70141 9.86406 3.73191 9.84081 3.75777L9.91518 3.82463M6.08382 3.82463L6.15799 3.75755C6.18135 3.78338 6.20989 3.804 6.24176 3.81807C6.27362 3.83214 6.30808 3.83935 6.34291 3.83922L6.34328 3.83922L9.65572 3.83922H9.65609C9.69092 3.83935 9.72538 3.83214 9.75725 3.81807C9.78911 3.804 9.81765 3.78338 9.84101 3.75755L9.91518 3.82463M6.08382 3.82463C6.11661 3.86087 6.15665 3.8898 6.20135 3.90955C6.24606 3.92929 6.29442 3.9394 6.34328 3.93922H9.65572C9.70459 3.9394 9.75294 3.92929 9.79765 3.90955C9.84235 3.8898 9.8824 3.86087 9.91518 3.82463M6.08382 3.82463C6.05112 3.78825 6.0265 3.74535 6.01159 3.69877C5.99669 3.65218 5.99183 3.60296 5.99734 3.55436L6.18328 1.69273C6.19189 1.60653 6.23234 1.52663 6.29671 1.46866C6.36108 1.41068 6.44476 1.37879 6.53139 1.37922L10.0017 3.55436M9.91518 3.82463C9.94788 3.78825 9.9725 3.74535 9.98741 3.69877C10.0023 3.65218 10.0072 3.60296 10.0017 3.55436M10.0017 3.55436L9.81572 1.6949C9.80762 1.6083 9.76739 1.52788 9.70297 1.46946C9.63854 1.41103 9.55458 1.37884 9.46761 1.37922L10.0017 3.55436Z" fill="#B5B5B5" stroke="#B5B5B5" stroke-width="0.2"/>
</g>
<defs>
<clipPath id="clip0_55_35080">
<rect width="16" height="16" fill="white" transform="translate(0 0.514465)"/>
</clipPath>
</defs>
</svg>
