<svg width="17" height="17" viewBox="0 0 17 17" fill="none" xmlns="http://www.w3.org/2000/svg">
<g id="Car">
<path id="Circle 4" d="M8.50045 1.65735C4.71531 1.65735 1.64331 4.72935 1.64331 8.51449C1.64331 12.2996 4.71531 15.3716 8.50045 15.3716C12.2856 15.3716 15.3576 12.2996 15.3576 8.51449C15.3576 4.72935 12.2925 1.65735 8.50045 1.65735Z" fill="#B5B5B5"/>
<rect id="Circle 3" x="2.78516" y="2.80029" width="11.4286" height="11.4286" rx="5.71429" fill="white"/>
<path id="Circle 2" d="M8.4999 3.94305C5.97647 3.94305 3.92847 5.99105 3.92847 8.51448C3.92847 11.0379 5.97647 13.0859 8.4999 13.0859C11.0233 13.0859 13.0713 11.0379 13.0713 8.51448C13.0713 5.99105 11.0279 3.94305 8.4999 3.94305Z" fill="#B5B5B5"/>
<rect id="Rectangle 1" x="9.64331" y="7.37158" width="4.57143" height="2.28571" fill="#B5B5B5"/>
<rect id="Rectangle 2" x="2.78516" y="7.37158" width="4.57143" height="2.28571" fill="#B5B5B5"/>
<rect id="Rectangle 3" x="7.35669" y="9.65735" width="2.28571" height="4.57143" fill="#B5B5B5"/>
<rect id="Circle 1" x="5.07153" y="5.08588" width="6.85714" height="6.85714" rx="3.42857" fill="white"/>
</g>
</svg>
