<svg width="16" height="17" viewBox="0 0 16 17" fill="none" xmlns="http://www.w3.org/2000/svg">
<g id="Star">
<g id="Iconly/Two-tone/Star">
<g id="Star_2">
<path id="Stroke-1" fill-rule="evenodd" clip-rule="evenodd" d="M8.73617 3.29912L9.95445 5.73295C10.0738 5.97188 10.3043 6.13756 10.5716 6.1759L13.2969 6.56819C13.9702 6.6654 14.2382 7.48148 13.7509 7.94907L11.7801 9.84274C11.5864 10.029 11.4983 10.2966 11.5441 10.5595L12.0092 13.233C12.1237 13.8943 11.4198 14.3989 10.818 14.086L8.38214 12.8229C8.14335 12.699 7.85735 12.699 7.61786 12.8229L5.182 14.086C4.58015 14.3989 3.87626 13.8943 3.9915 13.233L4.4559 10.5595C4.50171 10.2966 4.41355 10.029 4.21988 9.84274L2.24912 7.94907C1.76181 7.48148 2.02976 6.6654 2.70311 6.56819L5.42843 6.1759C5.69569 6.13756 5.92685 5.97188 6.04625 5.73295L7.26383 3.29912C7.5651 2.69733 8.4349 2.69733 8.73617 3.29912Z" stroke="#B5B5B5" stroke-linecap="round" stroke-linejoin="round"/>
</g>
</g>
</g>
</svg>
